<svg width="100" height="37" viewBox="0 0 100 37" fill="none" xmlns="http://www.w3.org/2000/svg">
<path d="M2.5 15.9099C1.11929 15.9099 0 17.0292 0 18.4099C0 19.7906 1.11929 20.9099 2.5 20.9099V18.4099V15.9099ZM99.2678 20.1777C100.244 19.2014 100.244 17.6185 99.2678 16.6421L83.3579 0.732243C82.3816 -0.244068 80.7986 -0.244068 79.8223 0.732243C78.846 1.70855 78.846 3.29147 79.8223 4.26778L93.9645 18.4099L79.8223 32.552C78.846 33.5284 78.846 35.1113 79.8223 36.0876C80.7986 37.0639 82.3816 37.0639 83.3579 36.0876L99.2678 20.1777ZM2.5 18.4099V20.9099H97.5V18.4099V15.9099H2.5V18.4099Z" fill="url(#paint0_linear_11_48)"/>
<defs>
<linearGradient id="paint0_linear_11_48" x1="2.5" y1="18.9099" x2="97.5" y2="18.9099" gradientUnits="userSpaceOnUse">
<stop stop-opacity="0"/>
<stop offset="1" stop-color="#FF7300"/>
</linearGradient>
</defs>
</svg>
