<svg width="296" height="272" viewBox="0 0 296 272" fill="none" xmlns="http://www.w3.org/2000/svg">
<path d="M294.623 248.223C295.99 246.856 295.99 244.64 294.623 243.273L272.349 221C270.982 219.633 268.766 219.633 267.4 221C266.033 222.366 266.033 224.582 267.4 225.949L287.199 245.748L267.4 265.547C266.033 266.914 266.033 269.13 267.4 270.497C268.766 271.864 270.982 271.864 272.349 270.497L294.623 248.223ZM25.7739 245.748L22.2739 245.748L22.2739 249.248L25.7739 249.248L25.7739 245.748ZM28.2487 1.02516C26.8819 -0.341678 24.6658 -0.341661 23.299 1.02517L1.02511 23.299C-0.341716 24.6659 -0.341716 26.882 1.02512 28.2488C2.39196 29.6156 4.60804 29.6156 5.97487 28.2488L25.7739 8.4498L45.5728 28.2488C46.9397 29.6156 49.1558 29.6156 50.5226 28.2488C51.8894 26.8819 51.8894 24.6658 50.5226 23.299L28.2487 1.02516ZM292.148 245.748L292.148 242.248L25.7739 242.248L25.7739 245.748L25.7739 249.248L292.148 249.248L292.148 245.748ZM25.7739 245.748L29.2739 245.748L29.2739 3.50005L25.7738 3.50004L22.2738 3.50003L22.2739 245.748L25.7739 245.748Z" fill="#FF7300"/>
</svg>
