<svg width="24" height="15" viewBox="0 0 24 15" fill="none" xmlns="http://www.w3.org/2000/svg">
<path d="M0.993019 6.46926C0.440747 6.47312 -0.00383132 6.92395 2.44379e-05 7.47622C0.0038802 8.02849 0.45471 8.47307 1.00698 8.46921L1 7.46924L0.993019 6.46926ZM23.1655 8.02161C23.5533 7.62837 23.5488 6.99522 23.1556 6.60743L16.7474 0.288056C16.3541 -0.0997323 15.721 -0.0953118 15.3332 0.297929C14.9454 0.691171 14.9498 1.32432 15.3431 1.71211L21.0393 7.32933L15.422 13.0255C15.0343 13.4188 15.0387 14.0519 15.4319 14.4397C15.8252 14.8275 16.4583 14.8231 16.8461 14.4298L23.1655 8.02161ZM1 7.46924L1.00698 8.46921L22.4604 8.31943L22.4535 7.31946L22.4465 6.31948L0.993019 6.46926L1 7.46924Z" fill="white"/>
</svg>
