<svg width="64" height="65" viewBox="0 0 64 65" fill="none" xmlns="http://www.w3.org/2000/svg">
<path d="M21.3359 32.015C21.3359 26.1214 26.1102 21.3425 32.0013 21.3425C37.8923 21.3425 42.6692 26.1214 42.6692 32.015C42.6692 37.9086 37.8923 42.6875 32.0013 42.6875C26.1102 42.6875 21.3359 37.9086 21.3359 32.015ZM15.569 32.015C15.569 41.0945 22.9257 48.4543 32.0013 48.4543C41.0768 48.4543 48.4336 41.0945 48.4336 32.015C48.4336 22.9355 41.0768 15.5757 32.0013 15.5757C22.9257 15.5757 15.569 22.9355 15.569 32.015ZM45.2439 14.9239C45.2436 15.6837 45.4685 16.4266 45.8903 17.0585C46.312 17.6905 46.9115 18.1831 47.6131 18.4742C48.3147 18.7652 49.0868 18.8416 49.8317 18.6937C50.5767 18.5457 51.2611 18.1801 51.7984 17.643C52.3357 17.106 52.7017 16.4216 52.8501 15.6764C52.9986 14.9312 52.9229 14.1587 52.6325 13.4566C52.3421 12.7545 51.8502 12.1543 51.2188 11.7319C50.5875 11.3095 49.8451 11.0839 49.0856 11.0836C48.0676 11.0841 47.0898 11.4888 46.3697 12.2088C45.6497 12.9289 45.2448 13.9054 45.2439 14.9239ZM19.0728 58.0744C15.9528 57.9323 14.257 57.4124 13.13 56.9731C11.6359 56.3912 10.5699 55.6982 9.44908 54.5784C8.32827 53.4586 7.63448 52.3932 7.05539 50.8985C6.61607 49.7715 6.09637 48.0745 5.95454 44.9532C5.7994 41.5785 5.76842 40.5648 5.76842 32.0153C5.76842 23.4657 5.80196 22.4548 5.95454 19.0774C6.09663 15.956 6.62017 14.2623 7.05539 13.132C7.63704 11.6373 8.3298 10.5708 9.44908 9.44955C10.5684 8.32825 11.6334 7.63417 13.13 7.05483C14.2564 6.61532 15.9528 6.0954 19.0728 5.95351C22.446 5.7983 23.4592 5.76731 32.0013 5.76731C40.5433 5.76731 41.5576 5.80086 44.9336 5.95351C48.0536 6.09566 49.7466 6.61942 50.8764 7.05483C52.3705 7.63417 53.4365 8.32979 54.5573 9.44955C55.6781 10.5693 56.3694 11.6373 56.951 13.132C57.3903 14.259 57.91 15.956 58.0519 19.0774C58.207 22.4548 58.238 23.4657 58.238 32.0153C58.238 40.5648 58.207 41.5757 58.0519 44.9532C57.9098 48.0745 57.3875 49.771 56.951 50.8985C56.3694 52.3932 55.6766 53.4597 54.5573 54.5784C53.438 55.6971 52.3705 56.3912 50.8764 56.9731C49.75 57.4126 48.0536 57.9325 44.9336 58.0744C41.5604 58.2296 40.5472 58.2606 32.0013 58.2606C23.4554 58.2606 22.4449 58.2296 19.0728 58.0744ZM18.8078 0.193883C15.4011 0.349092 13.0732 0.889505 11.0402 1.68092C8.93476 2.49819 7.15241 3.59464 5.37135 5.37365C3.59029 7.15266 2.49712 8.93859 1.6802 11.0449C0.889124 13.08 0.348942 15.4077 0.1938 18.8159C0.0360974 22.2294 0 23.3207 0 32.015C0 40.7092 0.0360974 41.8006 0.1938 45.2141C0.348942 48.6226 0.889124 50.95 1.6802 52.9851C2.49712 55.0901 3.59054 56.8781 5.37135 58.6563C7.15216 60.4346 8.93476 61.5295 11.0402 62.3491C13.077 63.1405 15.4011 63.6809 18.8078 63.8361C22.2217 63.9913 23.3108 64.03 32.0013 64.03C40.6918 64.03 41.7827 63.9939 45.1948 63.8361C48.6018 63.6809 50.9281 63.1405 52.9624 62.3491C55.0665 61.5295 56.8501 60.4354 58.6312 58.6563C60.4123 56.8773 61.5031 55.0901 62.3224 52.9851C63.1134 50.95 63.6562 48.6223 63.8088 45.2141C63.9639 41.798 64 40.7092 64 32.015C64 23.3207 63.9639 22.2294 63.8088 18.8159C63.6536 15.4074 63.1134 13.0788 62.3224 11.0449C61.5031 8.93987 60.4095 7.15548 58.6312 5.37365C56.853 3.59183 55.0665 2.49819 52.9649 1.68092C50.9281 0.889505 48.6015 0.34653 45.1973 0.193883C41.7852 0.0386741 40.6944 0 32.0038 0C23.3133 0 22.2217 0.0361129 18.8078 0.193883Z" fill="url(#paint0_radial_12_2)"/>
<defs>
<radialGradient id="paint0_radial_12_2" cx="0" cy="0" r="1" gradientUnits="userSpaceOnUse" gradientTransform="translate(8.50312 64.3325) scale(83.55 83.5858)">
<stop offset="0.09" stop-color="#FA8F21"/>
<stop offset="0.78" stop-color="#D82D7E"/>
</radialGradient>
</defs>
</svg>
