<svg width="1440" height="724" viewBox="0 0 1440 724" fill="none" xmlns="http://www.w3.org/2000/svg">
<path d="M-3.92491 715.902C-5.63566 718.07 -5.26526 721.214 -3.0976 722.925C-0.929932 724.636 2.21415 724.265 3.92491 722.098L0 719L-3.92491 715.902ZM440.612 627.001L439.613 622.102L440.612 627.001ZM1137.58 5.0065L1137.65 10.006L1137.58 5.0065ZM1440 447.003L1449.77 390.101L1395.61 410.087L1440 447.003ZM0 719L3.92491 722.098C84.3621 620.177 141.373 566.174 184.04 541.55C205.291 529.285 222.714 524.47 237.522 524.442C252.268 524.414 264.891 529.133 276.594 536.771C288.391 544.472 299.15 555.066 310.124 566.708C320.97 578.213 332.116 590.847 344.24 601.859C368.787 624.153 398.336 640.722 441.611 631.9L440.612 627.001L439.613 622.102C400.582 630.058 374.151 615.516 350.964 594.456C339.221 583.791 328.56 571.687 317.401 559.849C306.371 548.148 294.925 536.794 282.059 528.397C269.099 519.938 254.599 514.41 237.503 514.442C220.469 514.474 201.331 520.025 179.042 532.889C134.627 558.521 76.6379 613.823 -3.92491 715.902L0 719ZM440.612 627.001L441.611 631.9C528.616 614.164 606.732 566.085 677.118 504.322C747.506 442.558 810.426 366.873 866.999 293.558C923.721 220.049 973.82 149.265 1019.08 96.4466C1041.68 70.0801 1062.84 48.4727 1082.75 33.4249C1102.72 18.3373 1120.91 10.235 1137.65 10.006L1137.58 5.0065L1137.51 0.00696707C1117.7 0.278027 1097.43 9.80045 1076.73 25.447C1055.97 41.1332 1034.26 63.3689 1011.49 89.9394C966.023 142.995 915.403 214.459 859.082 287.449C802.611 360.632 740.165 435.696 670.522 496.806C600.879 557.917 524.302 604.837 439.613 622.102L440.612 627.001ZM1137.58 5.0065L1137.65 10.006C1162.4 9.66747 1188.71 23.7106 1215.58 48.6504C1242.35 73.4939 1268.99 108.527 1294.33 148.694C1344.98 229 1389.89 328.979 1419.76 406.582L1424.42 404.786L1429.09 402.99C1399.1 325.067 1353.92 224.427 1302.78 143.359C1277.23 102.84 1250.05 66.9984 1222.38 41.321C1194.82 15.7397 1166.09 -0.384036 1137.51 0.00696707L1137.58 5.0065Z" fill="#FF7300"/>
</svg>
